
<svg width="14" height="14" viewBox="0 0 14 14" fill="none" xmlns="http://www.w3.org/2000/svg">
<path fill-rule="evenodd" clip-rule="evenodd" d="M7 0C3.13758 0 0 3.13758 0 7C0 10.8624 3.13758 14 7 14C10.8624 14 14 10.8624 14 7C14 3.13758 10.8624 0 7 0Z" fill="#37C33D"/>
<path d="M10.2232 4C10.0168 4.00002 9.81868 4.08659 9.67283 4.24032L5.92558 8.18932L4.32717 6.50484C4.32715 6.50483 4.32718 6.50486 4.32717 6.50484C4.0253 6.18679 3.52827 6.18674 3.2264 6.5048C3.22638 6.50481 3.22641 6.50478 3.2264 6.5048C2.92459 6.82292 2.92455 7.34606 3.22635 7.66419C3.22634 7.66419 3.22637 7.66419 3.22635 7.66419L5.10662 9.64565C5.55495 10.1181 6.29625 10.1181 6.74459 9.64565L10.7736 5.39967C11.0755 5.08155 11.0755 4.55845 10.7736 4.24032C10.6278 4.08659 10.4296 4.00003 10.2232 4C10.2232 4 10.2232 4 10.2232 4Z" fill="#E8F5E9"/>
</svg>
