
<svg width="14" height="14" viewBox="0 0 14 14" fill="none" xmlns="http://www.w3.org/2000/svg">
<path d="M7 0C3.14005 0 0 3.14005 0 7C0 10.86 3.14005 14 7 14C10.86 14 14 10.86 14 7C14 3.14005 10.86 0 7 0Z" fill="#F44336"/>
<path d="M9.57759 8.75293C9.80563 8.98108 9.80563 9.34968 9.57759 9.57783C9.46383 9.69159 9.31451 9.74873 9.16508 9.74873C9.01576 9.74873 8.86644 9.69159 8.75268 9.57783L6.9998 7.82484L5.24691 9.57783C5.13316 9.69159 4.98384 9.74873 4.83451 9.74873C4.68509 9.74873 4.53576 9.69159 4.42201 9.57783C4.19397 9.34968 4.19397 8.98108 4.42201 8.75293L6.175 7.00004L4.42201 5.24716C4.19397 5.01901 4.19397 4.6504 4.42201 4.42225C4.65016 4.19421 5.01876 4.19421 5.24691 4.42225L6.9998 6.17524L8.75268 4.42225C8.98083 4.19421 9.34944 4.19421 9.57759 4.42225C9.80563 4.6504 9.80563 5.01901 9.57759 5.24716L7.8246 7.00004L9.57759 8.75293Z" fill="#FAFAFA"/>
</svg>
