
<svg width="16" height="19" viewBox="0 0 16 19" fill="none" xmlns="http://www.w3.org/2000/svg">
<path d="M7.99998 12.7014C7.70542 12.7014 7.46665 12.4272 7.46665 12.089V9.94582H5.59998C5.30542 9.94582 5.06665 9.67167 5.06665 9.33347C5.06665 8.99527 5.30542 8.72112 5.59998 8.72112H7.46665V6.57791C7.46665 6.23972 7.70542 5.96557 7.99998 5.96557C8.29454 5.96557 8.53332 6.23972 8.53332 6.57791V8.72112H10.4C10.6945 8.72112 10.9333 8.99527 10.9333 9.33347C10.9333 9.67167 10.6945 9.94582 10.4 9.94582H8.53332V12.089C8.53332 12.4272 8.29454 12.7014 7.99998 12.7014Z" fill="white"/>
<path fill-rule="evenodd" clip-rule="evenodd" d="M4.26667 0.147858C1.91025 0.147858 0 2.34111 0 5.04662V13.6195C0 16.325 1.91025 18.5182 4.26667 18.5182H11.7333C14.0898 18.5182 16 16.325 16 13.6195V5.84491C16 5.166 15.7546 4.51753 15.3223 4.05429L12.2916 0.806607C11.8966 0.383289 11.3764 0.147858 10.836 0.147858H4.26667ZM1.06667 5.04662C1.06667 3.01749 2.49936 1.37255 4.26667 1.37255H10.6667V3.20959C10.6667 4.56235 11.6218 5.65897 12.8 5.65897H14.921C14.9291 5.72011 14.9333 5.78226 14.9333 5.84491V13.6195C14.9333 15.6486 13.5006 17.2935 11.7333 17.2935H4.26667C2.49936 17.2935 1.06667 15.6486 1.06667 13.6195V5.04662ZM11.7333 3.20959V1.88358L14.1136 4.43428H12.8C12.2109 4.43428 11.7333 3.88595 11.7333 3.20959Z" fill="white"/>
</svg>
