<svg width="18" height="18" viewBox="0 0 18 18" fill="none" xmlns="http://www.w3.org/2000/svg">
<path d="M17.2476 16.0978H8.04726C7.67005 16.0978 7.35724 15.785 7.35724 15.4078C7.35724 15.0306 7.67005 14.7178 8.04726 14.7178H17.2476C17.6248 14.7178 17.9376 15.0306 17.9376 15.4078C17.9376 15.785 17.6248 16.0978 17.2476 16.0978Z" fill="white"/>
<path d="M17.2476 9.65749H8.04726C7.67005 9.65749 7.35724 9.34467 7.35724 8.96746C7.35724 8.59025 7.67005 8.27744 8.04726 8.27744H17.2476C17.6248 8.27744 17.9376 8.59025 17.9376 8.96746C17.9376 9.34467 17.6248 9.65749 17.2476 9.65749Z" fill="white"/>
<path d="M17.2476 3.21803H8.04726C7.67005 3.21803 7.35724 2.90522 7.35724 2.52801C7.35724 2.15079 7.67005 1.83798 8.04726 1.83798H17.2476C17.6248 1.83798 17.9376 2.15079 17.9376 2.52801C17.9376 2.90522 17.6248 3.21803 17.2476 3.21803Z" fill="white"/>
<path d="M1.60776 4.13785C1.43295 4.13785 1.25815 4.07345 1.12014 3.93544L0.200107 3.01541C-0.0667024 2.7486 -0.0667024 2.30698 0.200107 2.04017C0.466917 1.77336 0.908533 1.77336 1.17534 2.04017L1.60776 2.47259L3.88024 0.200107C4.14705 -0.0667024 4.58867 -0.0667024 4.85547 0.200107C5.12228 0.466917 5.12228 0.908533 4.85547 1.17534L2.09538 3.93544C1.95737 4.07345 1.78256 4.13785 1.60776 4.13785Z" fill="white"/>
<path d="M1.60751 10.5773C1.43271 10.5773 1.2579 10.5129 1.1199 10.3749L0.199863 9.45484C-0.0669465 9.18803 -0.0669465 8.74641 0.199863 8.47961C0.466673 8.2128 0.908289 8.2128 1.1751 8.47961L1.60751 8.91202L3.88 6.63958C4.14681 6.37277 4.58842 6.37277 4.85523 6.63958C5.12204 6.90635 5.12204 7.34796 4.85523 7.61477L2.09513 10.3749C1.95713 10.5129 1.78232 10.5773 1.60751 10.5773Z" fill="white"/>
<path d="M1.60751 17.0185C1.43271 17.0185 1.2579 16.9541 1.1199 16.8161L0.199863 15.8961C-0.0669465 15.6293 -0.0669465 15.1877 0.199863 14.9208C0.466673 14.654 0.908289 14.654 1.1751 14.9208L1.60751 15.3533L3.88 13.0808C4.14681 12.814 4.58842 12.814 4.85523 13.0808C5.12204 13.3476 5.12204 13.7892 4.85523 14.056L2.09513 16.8161C1.95713 16.9541 1.78232 17.0185 1.60751 17.0185Z" fill="white"/>
</svg>
