
<svg width="16" height="16" viewBox="0 0 16 16" fill="none" xmlns="http://www.w3.org/2000/svg">
<path d="M5.90967 5.77813H1.11801C0.501509 5.77813 0 5.27662 0 4.66V1.78501C0 1.1685 0.501509 0.666992 1.11801 0.666992H5.90967C6.52629 0.666992 7.0278 1.1685 7.0278 1.78501V4.66C7.0278 5.27662 6.52629 5.77813 5.90967 5.77813ZM1.11801 1.62532C1.02993 1.62532 0.958331 1.69692 0.958331 1.78501V4.66C0.958331 4.74821 1.02993 4.8198 1.11801 4.8198H5.90967C5.99788 4.8198 6.06947 4.74821 6.06947 4.66V1.78501C6.06947 1.69692 5.99788 1.62532 5.90967 1.62532H1.11801Z" fill="white"/>
<path d="M5.90967 16.0003H1.11801C0.501509 16.0003 0 15.4987 0 14.8822V8.17392C0 7.5573 0.501509 7.05579 1.11801 7.05579H5.90967C6.52629 7.05579 7.0278 7.5573 7.0278 8.17392V14.8822C7.0278 15.4987 6.52629 16.0003 5.90967 16.0003ZM1.11801 8.01412C1.02993 8.01412 0.958331 8.08571 0.958331 8.17392V14.8822C0.958331 14.9703 1.02993 15.0419 1.11801 15.0419H5.90967C5.99788 15.0419 6.06947 14.9703 6.06947 14.8822V8.17392C6.06947 8.08571 5.99788 8.01412 5.90967 8.01412H1.11801Z" fill="white"/>
<path d="M14.2153 16.0003H9.42361C8.80699 16.0003 8.30548 15.4988 8.30548 14.8823V12.0073C8.30548 11.3907 8.80699 10.8892 9.42361 10.8892H14.2153C14.8318 10.8892 15.3333 11.3907 15.3333 12.0073V14.8823C15.3333 15.4988 14.8318 16.0003 14.2153 16.0003ZM9.42361 11.8475C9.33541 11.8475 9.26381 11.9191 9.26381 12.0073V14.8823C9.26381 14.9704 9.33541 15.042 9.42361 15.042H14.2153C14.3034 15.042 14.375 14.9704 14.375 14.8823V12.0073C14.375 11.9191 14.3034 11.8475 14.2153 11.8475H9.42361Z" fill="white"/>
<path d="M14.2153 9.61146H9.42361C8.80699 9.61146 8.30548 9.10995 8.30548 8.49333V1.78501C8.30548 1.1685 8.80699 0.666992 9.42361 0.666992H14.2153C14.8318 0.666992 15.3333 1.1685 15.3333 1.78501V8.49333C15.3333 9.10995 14.8318 9.61146 14.2153 9.61146ZM9.42361 1.62532C9.33541 1.62532 9.26381 1.69692 9.26381 1.78501V8.49333C9.26381 8.58153 9.33541 8.65313 9.42361 8.65313H14.2153C14.3034 8.65313 14.375 8.58153 14.375 8.49333V1.78501C14.375 1.69692 14.3034 1.62532 14.2153 1.62532H9.42361Z" fill="white"/>
</svg>
