<svg width="17" height="14" viewBox="0 0 17 14" fill="none" xmlns="http://www.w3.org/2000/svg">
<path d="M5.08299 6.45166H2.06398C1.7138 6.45126 1.37808 6.31198 1.13046 6.06436C0.882849 5.81675 0.743564 5.48102 0.743164 5.13085V2.11183C0.743564 1.76165 0.882849 1.42593 1.13046 1.17832C1.37808 0.930701 1.7138 0.791415 2.06398 0.791016H5.08299C5.43317 0.791415 5.7689 0.930701 6.01651 1.17832C6.26413 1.42593 6.40341 1.76165 6.40381 2.11183V5.13085C6.40341 5.48102 6.26413 5.81675 6.01651 6.06436C5.7689 6.31198 5.43317 6.45126 5.08299 6.45166ZM2.06398 1.92315C2.01394 1.92315 1.96594 1.94302 1.93056 1.97841C1.89517 2.0138 1.87529 2.06179 1.87529 2.11183V5.13085C1.87529 5.18089 1.89517 5.22888 1.93056 5.26427C1.96594 5.29965 2.01394 5.31953 2.06398 5.31953H5.08299C5.13304 5.31953 5.18103 5.29965 5.21642 5.26427C5.2518 5.22888 5.27168 5.18089 5.27168 5.13085V2.11183C5.27168 2.06179 5.2518 2.0138 5.21642 1.97841C5.18103 1.94302 5.13304 1.92315 5.08299 1.92315H2.06398Z" fill="white"/>
<path d="M5.08299 13.9999H2.06398C1.7138 13.9995 1.37808 13.8602 1.13046 13.6126C0.882849 13.365 0.743564 13.0293 0.743164 12.6791V9.66006C0.743564 9.30988 0.882849 8.97416 1.13046 8.72654C1.37808 8.47893 1.7138 8.33964 2.06398 8.33924H5.08299C5.43317 8.33964 5.7689 8.47893 6.01651 8.72654C6.26413 8.97416 6.40341 9.30988 6.40381 9.66006V12.6791C6.40341 13.0293 6.26413 13.365 6.01651 13.6126C5.7689 13.8602 5.43317 13.9995 5.08299 13.9999ZM2.06398 9.47137C2.01394 9.47137 1.96594 9.49125 1.93056 9.52664C1.89517 9.56202 1.87529 9.61002 1.87529 9.66006V12.6791C1.87529 12.7291 1.89517 12.7771 1.93056 12.8125C1.96594 12.8479 2.01394 12.8678 2.06398 12.8678H5.08299C5.13304 12.8678 5.18103 12.8479 5.21642 12.8125C5.2518 12.7771 5.27168 12.7291 5.27168 12.6791V9.66006C5.27168 9.61002 5.2518 9.56202 5.21642 9.52664C5.18103 9.49125 5.13304 9.47137 5.08299 9.47137H2.06398Z" fill="white"/>
<path d="M16.4046 2.67754H8.85708C8.70695 2.67754 8.56297 2.6179 8.45681 2.51174C8.35065 2.40559 8.29102 2.2616 8.29102 2.11147C8.29102 1.96135 8.35065 1.81736 8.45681 1.71121C8.56297 1.60505 8.70695 1.54541 8.85708 1.54541H16.4046C16.5547 1.54541 16.6987 1.60505 16.8049 1.71121C16.911 1.81736 16.9707 1.96135 16.9707 2.11147C16.9707 2.2616 16.911 2.40559 16.8049 2.51174C16.6987 2.6179 16.5547 2.67754 16.4046 2.67754Z" fill="white"/>
<path d="M13.3856 5.69683H8.85708C8.70695 5.69683 8.56297 5.63719 8.45681 5.53103C8.35065 5.42487 8.29102 5.28089 8.29102 5.13076C8.29102 4.98063 8.35065 4.83665 8.45681 4.73049C8.56297 4.62434 8.70695 4.5647 8.85708 4.5647H13.3856C13.5357 4.5647 13.6797 4.62434 13.7859 4.73049C13.892 4.83665 13.9517 4.98063 13.9517 5.13076C13.9517 5.28089 13.892 5.42487 13.7859 5.53103C13.6797 5.63719 13.5357 5.69683 13.3856 5.69683Z" fill="white"/>
<path d="M16.4046 10.2256H8.85708C8.70695 10.2256 8.56297 10.166 8.45681 10.0598C8.35065 9.95368 8.29102 9.8097 8.29102 9.65957C8.29102 9.50944 8.35065 9.36546 8.45681 9.2593C8.56297 9.15314 8.70695 9.09351 8.85708 9.09351H16.4046C16.5547 9.09351 16.6987 9.15314 16.8049 9.2593C16.911 9.36546 16.9707 9.50944 16.9707 9.65957C16.9707 9.8097 16.911 9.95368 16.8049 10.0598C16.6987 10.166 16.5547 10.2256 16.4046 10.2256Z" fill="white"/>
<path d="M13.3856 13.2439H8.85708C8.70695 13.2439 8.56297 13.1843 8.45681 13.0781C8.35065 12.972 8.29102 12.828 8.29102 12.6779C8.29102 12.5278 8.35065 12.3838 8.45681 12.2776C8.56297 12.1715 8.70695 12.1118 8.85708 12.1118H13.3856C13.5357 12.1118 13.6797 12.1715 13.7859 12.2776C13.892 12.3838 13.9517 12.5278 13.9517 12.6779C13.9517 12.828 13.892 12.972 13.7859 13.0781C13.6797 13.1843 13.5357 13.2439 13.3856 13.2439Z" fill="white"/>
</svg>
