<svg width="18" height="18" viewBox="0 0 18 18" fill="none" xmlns="http://www.w3.org/2000/svg">
<path d="M9.00006 8.99974C8.95581 8.99974 8.91231 8.99224 8.87031 8.97649L1.74531 6.35149C1.59756 6.29749 1.50006 6.15649 1.50006 5.99974C1.50006 5.84299 1.59831 5.70199 1.74606 5.64799L6.62106 3.85549C6.81456 3.78499 7.03131 3.88399 7.10256 4.07824C7.17381 4.27249 7.07406 4.48774 6.87981 4.55974L2.96106 5.99974L9.00006 8.22499L15.0391 5.99974L11.1203 4.55899C10.9261 4.48774 10.8263 4.27174 10.8976 4.07749C10.9688 3.88324 11.1848 3.78424 11.3791 3.85474L16.2541 5.64724C16.4018 5.70199 16.5001 5.84299 16.5001 5.99974C16.5001 6.15649 16.4026 6.29749 16.2548 6.35149L9.12981 8.97649C9.08781 8.99224 9.04431 8.99974 9.00006 8.99974Z" fill="white"/>
<path d="M8.99996 18.0002C8.95571 18.0002 8.91221 17.9927 8.87096 17.977L4.88846 16.5145C4.69421 16.4432 4.59446 16.228 4.66571 16.033C4.73696 15.8387 4.95296 15.739 5.14721 15.8102L8.99996 17.2255L12.8535 15.8102C13.0477 15.7382 13.263 15.8387 13.335 16.033C13.4062 16.2272 13.3065 16.4425 13.1122 16.5145L9.12971 17.977C9.08771 17.9927 9.04421 18.0002 8.99996 18.0002Z" fill="white"/>
<path d="M1.87506 13.32C1.66806 13.32 1.50006 13.152 1.50006 12.945V6C1.50006 5.793 1.66806 5.625 1.87506 5.625C2.08206 5.625 2.25006 5.793 2.25006 6V12.945C2.25006 13.152 2.08206 13.32 1.87506 13.32Z" fill="white"/>
<path d="M16.125 13.32C15.918 13.32 15.75 13.152 15.75 12.945V6C15.75 5.793 15.918 5.625 16.125 5.625C16.332 5.625 16.5 5.793 16.5 6V12.945C16.5 13.152 16.332 13.32 16.125 13.32Z" fill="white"/>
<path d="M8.99994 6C8.79294 6 8.62494 5.832 8.62494 5.625V2.625C8.62494 2.418 8.79294 2.25 8.99994 2.25C9.20694 2.25 9.37494 2.418 9.37494 2.625V5.625C9.37494 5.832 9.20694 6 8.99994 6Z" fill="white"/>
<path d="M15.7049 16.0803C15.6089 16.0803 15.5129 16.0436 15.4394 15.9708L13.6094 14.1408C13.4632 13.9946 13.4632 13.7568 13.6094 13.6106C13.7557 13.4643 13.9934 13.4643 14.1397 13.6106L15.9697 15.4406C16.1159 15.5868 16.1159 15.8246 15.9697 15.9708C15.8969 16.0436 15.8009 16.0803 15.7049 16.0803Z" fill="white"/>
<path d="M2.29505 16.0803C2.19905 16.0803 2.10305 16.0436 2.02955 15.9708C1.8833 15.8246 1.8833 15.5868 2.02955 15.4406L3.85955 13.6106C4.0058 13.4643 4.24355 13.4643 4.3898 13.6106C4.53605 13.7568 4.53605 13.9946 4.3898 14.1408L2.5598 15.9708C2.48705 16.0436 2.39105 16.0803 2.29505 16.0803Z" fill="white"/>
<path d="M8.99994 17.9994C8.79294 17.9994 8.62494 17.8314 8.62494 17.6244V8.62441C8.62494 8.41741 8.79294 8.24941 8.99994 8.24941C9.20694 8.24941 9.37494 8.41741 9.37494 8.62441V17.6244C9.37494 17.8314 9.20694 17.9994 8.99994 17.9994Z" fill="white"/>
<path d="M8.99994 3C8.17269 3 7.49994 2.32725 7.49994 1.5C7.49994 0.67275 8.17269 0 8.99994 0C9.82719 0 10.4999 0.67275 10.4999 1.5C10.4999 2.32725 9.82719 3 8.99994 3ZM8.99994 0.75C8.58669 0.75 8.24994 1.08675 8.24994 1.5C8.24994 1.91325 8.58669 2.25 8.99994 2.25C9.41319 2.25 9.74994 1.91325 9.74994 1.5C9.74994 1.08675 9.41319 0.75 8.99994 0.75Z" fill="white"/>
<path d="M16.5001 17.9994C15.6728 17.9994 15.0001 17.3267 15.0001 16.4994C15.0001 15.6722 15.6728 14.9994 16.5001 14.9994C17.3273 14.9994 18.0001 15.6722 18.0001 16.4994C18.0001 17.3267 17.3273 17.9994 16.5001 17.9994ZM16.5001 15.7494C16.0868 15.7494 15.7501 16.0862 15.7501 16.4994C15.7501 16.9127 16.0868 17.2494 16.5001 17.2494C16.9133 17.2494 17.2501 16.9127 17.2501 16.4994C17.2501 16.0862 16.9133 15.7494 16.5001 15.7494Z" fill="white"/>
<path d="M1.5 17.9994C0.67275 17.9994 0 17.3267 0 16.4994C0 15.6722 0.67275 14.9994 1.5 14.9994C2.32725 14.9994 3 15.6722 3 16.4994C3 17.3267 2.32725 17.9994 1.5 17.9994ZM1.5 15.7494C1.08675 15.7494 0.75 16.0862 0.75 16.4994C0.75 16.9127 1.08675 17.2494 1.5 17.2494C1.91325 17.2494 2.25 16.9127 2.25 16.4994C2.25 16.0862 1.91325 15.7494 1.5 15.7494Z" fill="white"/>
</svg>
