
<svg width="22" height="21" viewBox="0 0 22 21" fill="none" xmlns="http://www.w3.org/2000/svg">
<path d="M1.69988 5.87966L1.72194 5.87305C1.70871 5.87746 1.69547 5.88187 1.68665 5.88628C1.69106 5.88628 1.69768 5.88187 1.70209 5.87966H1.69988Z" fill="white"/>
<path d="M19.3901 5.88628C19.3901 5.88628 19.3659 5.87746 19.3549 5.87305L19.3769 5.87966C19.3769 5.87966 19.3879 5.88407 19.3924 5.88628H19.3901Z" fill="white"/>
<path d="M2.05882 18.4652C2.05882 18.4652 2.04779 18.4586 2.04337 18.4542C2.03896 18.4498 2.03455 18.4453 2.03235 18.4387C2.04117 18.4497 2.04779 18.4564 2.05882 18.4652Z" fill="white"/>
<path d="M14.5 10.5C14.5 12.433 12.933 14 11 14C9.067 14 7.5 12.433 7.5 10.5C7.5 8.567 9.067 7 11 7C12.933 7 14.5 8.567 14.5 10.5Z" stroke="white" stroke-width="1.5"/>
<path d="M20.011 12.5965C20.5329 12.4558 20.7939 12.3854 20.8969 12.2508C21 12.1163 21 11.8998 21 11.4669V9.53324C21 9.10029 21 8.88382 20.8969 8.74926C20.7938 8.61471 20.5329 8.54433 20.011 8.40358C18.0606 7.87759 16.8399 5.83851 17.3433 3.90087C17.4817 3.36799 17.5509 3.10156 17.4848 2.94529C17.4187 2.78902 17.2291 2.68134 16.8497 2.46596L15.125 1.48673C14.7528 1.27539 14.5667 1.16972 14.3997 1.19222C14.2326 1.21472 14.0442 1.40273 13.6672 1.77873C12.208 3.23448 9.79358 3.23442 8.33434 1.77864C7.95743 1.40263 7.76898 1.21463 7.60193 1.19212C7.43489 1.16962 7.24877 1.27529 6.87653 1.48663L5.15184 2.46587C4.77253 2.68123 4.58287 2.78891 4.51678 2.94515C4.45068 3.1014 4.51987 3.36787 4.65825 3.9008C5.16137 5.8385 3.93972 7.87763 1.98902 8.4036C1.46712 8.54432 1.20617 8.61468 1.10308 8.74924C1 8.8838 1 9.10028 1 9.53324V11.4669C1 11.8998 1 12.1163 1.10308 12.2508C1.20615 12.3854 1.46711 12.4558 1.98902 12.5965C3.9394 13.1225 5.16008 15.1616 4.65672 17.0992C4.51829 17.6321 4.44907 17.8985 4.51516 18.0548C4.58126 18.2111 4.77092 18.3188 5.15025 18.5341L6.87495 19.5134C7.24721 19.7247 7.43334 19.8304 7.6004 19.8079C7.76746 19.7854 7.95588 19.5973 8.33271 19.2213C9.79274 17.7644 12.2088 17.7643 13.6689 19.2212C14.0457 19.5973 14.2341 19.7853 14.4012 19.8078C14.5682 19.8303 14.7544 19.7246 15.1266 19.5133L16.8513 18.534C17.2307 18.3187 17.4204 18.211 17.4864 18.0547C17.5525 17.8984 17.4833 17.632 17.3448 17.0991C16.8412 15.1616 18.0609 13.1226 20.011 12.5965Z" stroke="white" stroke-width="1.5" stroke-linecap="round"/>
</svg>
