
<svg width="18" height="18" viewBox="0 0 18 18" fill="none" xmlns="http://www.w3.org/2000/svg">
<path d="M5.69911 16.0354C5.42889 16.0388 5.21451 15.8995 5.08669 15.7001C4.97772 15.5302 4.93083 15.3158 4.96412 15.1059C4.49047 15.3399 4.00425 15.559 3.49721 15.7574C3.22494 15.8648 2.92333 15.8074 2.71165 15.6101C2.49959 15.4124 2.42452 15.1142 2.51399 14.8351L2.51402 14.835C2.68155 14.3166 2.86988 13.8161 3.07617 13.3253C2.77562 13.3851 2.44646 13.3298 2.24976 13.0514C2.07797 12.815 2.05646 12.5065 2.19621 12.2485L2.19629 12.2483C2.46646 11.7536 2.88575 11.1023 3.4458 10.5765L1.34402 9.65679C1.34384 9.65672 1.34365 9.65664 1.34347 9.65656C0.461029 9.29479 0.192367 8.09012 0.805473 7.36888L2.37532 5.41745L2.37537 5.41739C2.76638 4.93296 3.42063 4.73172 4.00672 4.92246L4.00674 4.92247L5.45169 5.39322C7.29173 2.81714 10.1697 1.03025 13.2824 0.621444C14.1767 0.500419 15.0782 0.483543 15.9565 0.587856C16.4237 0.640613 16.8098 1.00208 16.8906 1.46597L16.905 1.54847L16.8956 1.54533C17.5944 5.49638 15.8766 9.7211 12.733 12.2447L13.292 13.6601L13.292 13.6602C13.5173 14.2321 13.3613 14.9003 12.9008 15.3192L11.0503 17.0057C11.0502 17.0059 11.05 17.006 11.0498 17.0062C10.3667 17.6644 9.14824 17.4684 8.73432 16.6103C8.73422 16.6101 8.73413 16.6099 8.73404 16.6097L7.68481 14.5664C7.19785 15.1564 6.57584 15.6175 6.09727 15.9171M5.69911 16.0354C5.699 16.0354 5.6989 16.0354 5.6988 16.0354V15.9854L5.69947 16.0354C5.69935 16.0354 5.69923 16.0354 5.69911 16.0354ZM5.69911 16.0354C5.83562 16.0353 5.97541 15.9958 6.09727 15.9171M6.09727 15.9171C6.09717 15.9171 6.09707 15.9172 6.09697 15.9173L6.07044 15.8749L6.09761 15.9169C6.09749 15.9169 6.09738 15.917 6.09727 15.9171ZM16.0366 1.42581C16.0751 1.45678 16.1061 1.49883 16.1251 1.55835L16.1326 1.60044C16.3441 2.79822 16.3299 4.03446 16.1084 5.23138C14.7806 4.10671 13.4517 2.85542 12.2461 1.59902C13.2663 1.34461 14.323 1.24209 15.3732 1.30671C15.436 1.31543 15.5061 1.3186 15.5756 1.32174C15.5876 1.32229 15.5997 1.32283 15.6116 1.3234C15.6949 1.32738 15.7765 1.33272 15.8509 1.34778C15.9252 1.36285 15.9884 1.38694 16.0366 1.42581ZM1.25759 8.48398L1.25758 8.48395C1.20438 8.26175 1.2573 8.03305 1.40203 7.85048C1.40207 7.85043 1.40211 7.85038 1.40214 7.85034L2.9722 5.89865L2.97223 5.8986C3.1638 5.65994 3.48052 5.56314 3.76504 5.65376C3.76507 5.65377 3.76511 5.65378 3.76514 5.65379L4.99653 6.05256C4.29191 7.19404 3.78063 8.44851 3.4965 9.75779L1.64778 8.94877C1.64774 8.94876 1.6477 8.94874 1.64766 8.94872C1.45057 8.86108 1.30742 8.69264 1.25759 8.48398ZM2.93324 5.86731C3.13748 5.61285 3.47564 5.50906 3.78032 5.60615L1.36297 7.81927L2.93324 5.86731ZM9.84639 13.1509L9.84632 13.1509C9.2682 13.417 8.66412 13.628 8.0469 13.7808L4.20602 10.1686C4.33193 9.48251 4.53347 8.81132 4.79053 8.16373L10.0136 13.0752C9.98662 13.0876 9.95949 13.0998 9.9319 13.1122C9.90397 13.1248 9.87558 13.1375 9.84639 13.1509ZM7.1582 14.0086C6.7432 14.5377 6.17789 14.9631 5.73355 15.2472C5.73507 15.2354 5.73667 15.2232 5.73832 15.2106C5.76374 15.0162 5.80179 14.7252 5.77011 14.4921C5.75203 14.359 5.70992 14.2329 5.61854 14.1563C5.52353 14.0767 5.38931 14.0615 5.21425 14.1199L5.21405 14.1193L5.20697 14.123C4.57319 14.4529 3.94017 14.757 3.26392 15.0229C3.48771 14.3358 3.75274 13.6796 4.04359 13.0293L4.04418 13.0295L4.04625 13.0218C4.09397 12.8433 4.07092 12.71 3.98589 12.6198C3.90405 12.533 3.77565 12.4985 3.64171 12.4886C3.40269 12.4709 3.10803 12.5296 2.91407 12.5682C2.90764 12.5694 2.90133 12.5707 2.89512 12.5719C3.15025 12.1114 3.53778 11.5195 4.03703 11.0743L7.1582 14.0086ZM12.1074 12.7348L12.5829 13.9379L12.583 13.938C12.6922 14.2126 12.6145 14.539 12.3881 14.7465L12.3719 14.7614V14.7647L10.5367 16.4372L10.5366 16.4372L10.5357 16.4382C10.2068 16.7545 9.6218 16.6674 9.42339 16.2582L9.4234 16.2582L9.42288 16.2572L8.49991 14.46C9.30605 14.2298 10.0928 13.9224 10.8317 13.525L10.8319 13.5249C11.2704 13.2863 11.6966 13.0229 12.1074 12.7348ZM13.3164 10.6645C12.572 11.4608 11.6912 12.1595 10.7352 12.6995L5.12028 7.42292C6.37281 4.8384 8.72795 2.75821 11.4197 1.85023C12.8012 3.31931 14.3587 4.78083 15.9075 6.06937C15.4452 7.76388 14.5553 9.34907 13.3162 10.6644L13.3164 10.6645Z" fill="white" stroke="white" stroke-width="0.1"/>
<path d="M10.7984 4.3814V4.38131L10.7954 4.38149C7.43245 4.58634 7.58695 9.47688 10.9525 9.47346V9.47355L10.9555 9.47337C14.3184 9.26852 14.1639 4.37798 10.7984 4.3814ZM12.1715 8.14372C10.5223 9.81067 8.0185 7.45583 9.58266 5.70781C11.2264 4.04297 13.7344 6.39014 12.1715 8.14372Z" fill="white" stroke="white" stroke-width="0.1"/>
<path d="M5.04475 10.1827L5.04475 10.1827L5.04506 10.183L6.01937 11.1004L6.01946 11.1005C6.1091 11.1845 6.2115 11.2154 6.30907 11.2059C6.40538 11.1966 6.49338 11.1482 6.55789 11.0799C6.62241 11.0116 6.66577 10.921 6.66955 10.8239C6.67337 10.7256 6.63634 10.6247 6.54692 10.5391L6.54693 10.5391L6.54661 10.5388L5.57231 9.62137L5.57222 9.62128C5.48258 9.53731 5.38018 9.50633 5.2826 9.51583C5.18629 9.5252 5.0983 9.57357 5.03379 9.64185C4.96927 9.71013 4.9259 9.80081 4.92213 9.89784C4.91831 9.99612 4.95534 10.0971 5.04475 10.1827Z" fill="white" stroke="white" stroke-width="0.1"/>
<path d="M7.23787 12.2485L7.2379 12.2485C7.32754 12.3325 7.42994 12.3635 7.52751 12.354C7.62382 12.3446 7.71182 12.2962 7.77633 12.2279C7.84085 12.1597 7.88421 12.069 7.88798 11.972C7.89181 11.8737 7.85478 11.7727 7.76536 11.6871L7.76537 11.6871L7.76499 11.6867L7.27616 11.228L7.27613 11.228C7.1865 11.144 7.0841 11.1131 6.98652 11.1225C6.89021 11.1319 6.80222 11.1803 6.7377 11.2486C6.67319 11.3169 6.62982 11.4075 6.62605 11.5046C6.62223 11.6028 6.65926 11.7038 6.74867 11.7894L6.74867 11.7894L6.74904 11.7898L7.23787 12.2485Z" fill="white" stroke="white" stroke-width="0.1"/>
<path d="M7.87768 12.803L7.87768 12.803L7.87784 12.8034C7.88673 12.8301 7.89988 12.8514 7.91381 12.8723L7.91365 12.8724L7.91637 12.8758L7.95654 12.926L7.95636 12.9262L7.95977 12.9297C8.10663 13.0804 8.35998 13.0804 8.50683 12.9297L8.50686 12.9297L8.50818 12.9282C8.53876 12.8942 8.57185 12.8542 8.58877 12.8034L8.58877 12.8034L8.58902 12.8027C8.64079 12.6383 8.61368 12.5061 8.53642 12.4149C8.46091 12.3258 8.34434 12.2841 8.23194 12.2844C8.11956 12.2846 8.00321 12.3267 7.92818 12.416C7.85137 12.5073 7.82498 12.6394 7.87768 12.803Z" fill="white" stroke="white" stroke-width="0.1"/>
</svg>
