<svg width="16" height="20" viewBox="0 0 16 20" fill="none" xmlns="http://www.w3.org/2000/svg">
<path d="M15.8418 4.38431L12.1543 0.526979C12.0554 0.42358 11.9224 0.365646 11.7837 0.365646H2.46115C1.37327 0.365646 0.488098 1.30827 0.488098 2.46708V17.4881C0.488098 18.6467 1.37314 19.5895 2.46115 19.5895H14.0269C15.1148 19.5895 16 18.6469 16 17.4881V4.78617C16 4.63496 15.943 4.4902 15.8418 4.38431ZM12.3125 2.27143L14.1781 4.22297H12.4806C12.388 4.22297 12.3125 4.1426 12.3125 4.04389V2.27143ZM14.0269 18.4631H2.46115C1.95646 18.4631 1.54568 18.0257 1.54568 17.4881V2.46708C1.54568 1.9294 1.95632 1.49204 2.46115 1.49204H11.2551V4.04389C11.2551 4.76373 11.8049 5.34937 12.4808 5.34937H14.9424V17.4881C14.9424 18.0257 14.5318 18.4631 14.0269 18.4631Z" fill="white"/>
<path d="M4.46025 12.6805H10.5383C10.8304 12.6805 11.0671 12.4284 11.0671 12.1173C11.0671 11.8062 10.8304 11.5541 10.5383 11.5541H4.46025C4.16817 11.5541 3.93146 11.8062 3.93146 12.1173C3.93146 12.4284 4.16817 12.6805 4.46025 12.6805Z" fill="white"/>
<path d="M11.2716 13.8078H4.46025C4.16817 13.8078 3.93146 14.0599 3.93146 14.371C3.93146 14.6821 4.16817 14.9342 4.46025 14.9342H11.2716C11.5635 14.9342 11.8004 14.6821 11.8004 14.371C11.8004 14.0599 11.5635 13.8078 11.2716 13.8078Z" fill="white"/>
</svg>
