<svg width="18" height="18" viewBox="0 0 18 18" fill="none" xmlns="http://www.w3.org/2000/svg">
<path d="M9 0C4.02528 0 0 4.02564 0 9C0 13.9747 4.02564 18 9 18C13.9747 18 18 13.9744 18 9C18 4.02528 13.9744 0 9 0ZM9 16.5938C4.80259 16.5938 1.40625 13.1971 1.40625 9C1.40625 4.80259 4.80287 1.40625 9 1.40625C13.1974 1.40625 16.5938 4.80287 16.5938 9C16.5938 13.1974 13.1971 16.5938 9 16.5938Z" fill="white"/>
<path d="M9 4.52979C8.61166 4.52979 8.29688 4.84457 8.29688 5.23291V9.76079C8.29688 10.1491 8.61166 10.4639 9 10.4639C9.38834 10.4639 9.70312 10.1491 9.70312 9.76079V5.23291C9.70312 4.84457 9.38834 4.52979 9 4.52979Z" fill="white"/>
<path d="M9 13.2248C9.52424 13.2248 9.94922 12.7998 9.94922 12.2756C9.94922 11.7513 9.52424 11.3264 9 11.3264C8.47576 11.3264 8.05078 11.7513 8.05078 12.2756C8.05078 12.7998 8.47576 13.2248 9 13.2248Z" fill="white"/>
</svg>
