<svg width="18" height="18" viewBox="0 0 18 18" fill="none" xmlns="http://www.w3.org/2000/svg">
<path d="M11.6265 3.40763C12.4968 3.44148 13.2826 3.75195 13.7031 4.17246C13.8983 4.36774 14.2149 4.36774 14.4101 4.17251C14.6054 3.97733 14.6054 3.66076 14.4102 3.46547C13.7615 2.81674 12.7059 2.44897 11.6654 2.40847C10.618 2.36773 9.4746 2.6545 8.67383 3.45543C8.47865 3.65066 8.47865 3.96723 8.67393 4.16246C8.86916 4.35769 9.18573 4.35764 9.38096 4.16241C9.92641 3.61681 10.7631 3.37403 11.6265 3.40763Z" fill="white"/>
<path fill-rule="evenodd" clip-rule="evenodd" d="M7.30896 11.4667C8.44055 12.4226 9.90332 12.9988 11.5006 12.9988C15.0901 12.9988 18 10.0889 18 6.49938C18 2.90987 15.0901 0 11.5006 0C7.91111 0 5.00123 2.90987 5.00123 6.49938C5.00123 8.09668 5.57743 9.55945 6.53334 10.691L5.42909 10.499L0.287777 15.6404C-0.0936375 16.0218 -0.0936375 16.6402 0.287777 17.0216L0.978413 17.7122C1.35983 18.0936 1.97822 18.0936 2.35963 17.7122L7.50099 12.5709L7.30896 11.4667ZM6.00114 6.49938C6.00114 9.53665 8.46335 11.9989 11.5006 11.9989C14.5379 11.9989 17.0001 9.53665 17.0001 6.49938C17.0001 3.46212 14.5379 0.999905 11.5006 0.999905C8.46335 0.999905 6.00114 3.46212 6.00114 6.49938ZM2.37713 14.9651L5.76916 11.5731L6.3295 11.6705L6.42695 12.2308L3.02492 15.6329L2.37713 14.9651ZM2.31778 16.34L1.66905 16.9888L1.01121 16.331L1.66999 15.6722L2.31778 16.34Z" fill="white"/>
</svg>
