
<svg width="100" height="47" viewBox="0 0 100 47" fill="none" xmlns="http://www.w3.org/2000/svg">
<path d="M47.4233 16.4896C46.5828 13.8424 45.2987 11.3458 43.6397 9.13317C41.9783 6.92301 39.9248 5.02154 37.6311 3.50777C36.4794 2.75706 35.264 2.11253 34.0069 1.56679C32.7498 1.02351 31.4486 0.579009 30.1155 0.267859C27.4543 -0.35691 24.6877 -0.532241 21.9799 -0.221091C19.2721 0.0925289 16.6232 0.870404 14.1776 2.06808C11.7345 3.27317 9.50452 4.90054 7.60784 6.8514C5.71362 8.8072 4.17717 11.1013 3.04505 13.5732C1.93253 16.055 1.21944 18.7196 1.0038 21.4285C0.785703 24.135 1.02585 26.8737 1.71199 29.4937C2.40792 32.1089 3.54249 34.6006 5.05444 36.8305C6.56884 39.0604 8.47532 41.0063 10.6391 42.5843C11.7222 43.3745 12.8788 44.0536 14.0771 44.6438C15.2779 45.229 16.5202 45.7279 17.8018 46.0909C20.3626 46.8268 23.0434 47.128 25.6948 46.9502C28.3438 46.77 30.9585 46.1378 33.3918 45.0883C35.8227 44.0314 38.0673 42.5522 40.0032 40.7421C41.9391 38.932 43.5344 36.7712 44.7547 34.4203C43.4951 36.749 41.8656 38.8727 39.9101 40.6383C37.9546 42.4015 35.7051 43.8264 33.2864 44.829C30.8629 45.8242 28.2777 46.402 25.6728 46.5304C23.0655 46.6589 20.4459 46.3156 17.9587 45.555C16.7138 45.1797 15.5106 44.6709 14.3516 44.0807C13.1949 43.4856 12.0824 42.8065 11.0459 42.0212C8.97521 40.4531 7.16431 38.5368 5.74058 36.3613C4.3193 34.1857 3.27049 31.7706 2.64807 29.2493C2.033 26.7255 1.85166 24.1029 2.10406 21.5273C2.35401 18.9492 3.07935 16.4328 4.17227 14.0992C5.28724 11.7755 6.77713 9.63693 8.59049 7.82683C10.4087 6.02167 12.5284 4.53012 14.8343 3.44357C17.1451 2.36442 19.6299 1.68285 22.1564 1.43344C24.6828 1.18649 27.2436 1.3964 29.694 2.0187C30.9217 2.32491 32.1151 2.75953 33.2668 3.28058C34.4161 3.8041 35.5286 4.419 36.575 5.12773C38.6579 6.55754 40.508 8.32813 41.9906 10.3753C43.4706 12.4225 44.6003 14.7191 45.3232 17.1391V17.144C45.4996 17.7318 46.1147 18.0651 46.6979 17.8873C47.2811 17.7095 47.612 17.0897 47.4355 16.502C47.4355 16.4971 47.4306 16.4872 47.4306 16.4847L47.4233 16.4896Z" fill="url(#paint0_linear_1_171)"/>
<path d="M40.0581 10.7061C38.5707 8.92814 36.777 7.41437 34.7872 6.2562C32.7998 5.09556 30.614 4.28312 28.3595 3.86578C23.8482 3.0237 19.082 3.81639 15.1049 6.04877C14.11 6.60193 13.1592 7.24151 12.2721 7.95518C11.3851 8.66885 10.5666 9.46895 9.81675 10.3258C9.06935 11.1852 8.39302 12.1063 7.8 13.0768C7.21434 14.0522 6.70709 15.0746 6.28806 16.1315C4.60212 20.3617 4.45755 25.1672 5.83962 29.469C6.18023 30.5457 6.61152 31.5927 7.12612 32.5953C7.64562 33.5954 8.24844 34.5486 8.92723 35.445C9.60601 36.3414 10.3608 37.1761 11.1768 37.9416C11.9952 38.7072 12.8848 39.3912 13.8208 40.0012C14.7594 40.6062 15.7371 41.147 16.7639 41.5791C17.7882 42.0162 18.8468 42.3644 19.9274 42.6213C22.0888 43.1423 24.3359 43.2534 26.5315 43.0015C27.6293 42.8731 28.7173 42.6558 29.7759 42.3422C30.8345 42.0261 31.8662 41.6211 32.8537 41.1322C33.8437 40.6432 34.7896 40.0703 35.6816 39.4208C36.5736 38.7714 37.4018 38.038 38.1664 37.2428C41.2393 34.072 43.1482 29.8147 43.4913 25.4314C43.0551 29.8073 41.0604 33.9881 37.9703 37.0477C37.2009 37.8132 36.3702 38.5195 35.4806 39.1369C34.5911 39.7542 33.6501 40.2975 32.6724 40.7543C31.6947 41.2137 30.6802 41.5866 29.6411 41.873C28.6021 42.1595 27.5386 42.3471 26.4702 42.4484C22.1892 42.8731 17.798 41.7322 14.2693 39.3073C13.3871 38.7047 12.549 38.033 11.7845 37.2872C11.0199 36.5415 10.3191 35.729 9.69178 34.8647C9.06445 34.0004 8.51064 33.0843 8.0377 32.1261C7.56966 31.1655 7.18493 30.1678 6.88352 29.1455C5.66318 25.0561 5.90333 20.5592 7.5525 16.66C7.96173 15.6845 8.45428 14.7462 9.01544 13.8522C9.58395 12.9632 10.2284 12.1261 10.9342 11.3482C11.6424 10.5728 12.4118 9.85172 13.2401 9.21213C14.0708 8.57254 14.953 8.00704 15.8768 7.51809C16.8006 7.02914 17.7637 6.62168 18.7537 6.29571C19.7437 5.97222 20.7631 5.74009 21.7923 5.59192C23.8482 5.30053 25.9532 5.34745 27.9797 5.77713C30.0063 6.19694 31.9569 6.96987 33.7212 8.05149C35.4855 9.13064 37.0563 10.516 38.3477 12.1261C38.73 12.6027 39.4235 12.6768 39.8989 12.2915C40.3718 11.9063 40.4453 11.2074 40.063 10.7284C40.0581 10.7234 40.0508 10.7136 40.0483 10.7111L40.0581 10.7061Z" fill="url(#paint1_linear_1_171)"/>
<path d="M31.3745 9.30111C29.6983 8.51335 27.8948 8.01453 26.0643 7.83426C24.2337 7.65399 22.3763 7.81203 20.6046 8.26394C18.8378 8.73314 17.147 9.48879 15.6399 10.5235C14.1353 11.5607 12.8072 12.8522 11.7436 14.3363C10.6801 15.8204 9.87147 17.4848 9.35687 19.2357C8.84717 20.989 8.64133 22.8287 8.73935 24.6487C8.84227 26.4687 9.26866 28.264 9.96214 29.9358C10.6679 31.6027 11.6432 33.1584 12.8586 34.4845C14.0741 35.8131 15.5076 36.9268 17.0808 37.7664C18.6565 38.6011 20.3669 39.1616 22.1165 39.4209C23.8686 39.6777 25.655 39.616 27.3802 39.2629C28.2427 39.0851 29.0833 38.8233 29.8993 38.4998C30.7128 38.1739 31.5068 37.7886 32.2517 37.3219C33.7416 36.3959 35.0771 35.2179 36.1651 33.8425C37.2532 32.467 38.1059 30.9063 38.6769 29.2493C39.2454 27.5898 39.5272 25.834 39.5125 24.0857C39.5003 22.3348 39.167 20.5939 38.5789 18.9566C39.1229 20.6112 39.4071 22.3497 39.3753 24.0857C39.3434 25.8192 39.0175 27.5404 38.4171 29.1554C37.8119 30.768 36.937 32.2694 35.8441 33.5782C34.7488 34.887 33.428 35.9909 31.9675 36.8453C31.2397 37.275 30.4653 37.6256 29.6763 37.917C28.8848 38.206 28.0712 38.4356 27.2429 38.5813C25.5889 38.8727 23.8882 38.8875 22.2366 38.5986C20.5874 38.3097 18.9897 37.7343 17.5317 36.9144C16.0761 36.0872 14.7651 35.008 13.6697 33.7461C12.5719 32.4843 11.7118 31.0223 11.0992 29.4691C10.5012 27.9084 10.1557 26.2538 10.1043 24.5919C10.0577 22.93 10.2905 21.2656 10.7929 19.6925C11.3001 18.122 12.072 16.6428 13.0596 15.3364C14.0495 14.0326 15.265 12.9139 16.6226 12.0298C17.9826 11.1458 19.497 10.521 21.0653 10.1506C22.636 9.795 24.2607 9.70363 25.8511 9.90365C27.4414 10.1037 28.995 10.5803 30.4286 11.3014H30.431C30.975 11.5755 31.6318 11.3532 31.8989 10.8025C32.166 10.2543 31.943 9.58756 31.399 9.31346C31.3916 9.31099 31.3794 9.30358 31.372 9.30111H31.3745Z" fill="url(#paint2_linear_1_171)"/>
<path d="M23.31 11.7508C21.9329 11.899 20.5802 12.2743 19.3378 12.8843C18.0954 13.4942 16.9608 14.3166 15.9953 15.3093C15.0347 16.3045 14.2432 17.4626 13.6625 18.7221C13.0817 19.9815 12.7264 21.3421 12.5965 22.7201C12.4715 24.1005 12.5843 25.4933 12.9151 26.8292C13.2532 28.1627 13.8095 29.437 14.5643 30.5705C15.319 31.7039 16.26 32.6991 17.3333 33.5066C18.4091 34.3117 19.6147 34.9241 20.884 35.3167C22.1534 35.7094 23.4865 35.86 24.7999 35.7933C26.1134 35.7168 27.4121 35.418 28.6178 34.8994C29.821 34.3783 30.9335 33.6499 31.8916 32.751C32.8448 31.8496 33.6462 30.7878 34.2514 29.6222C34.8567 28.4566 35.2512 27.1824 35.435 25.8859C35.6163 24.587 35.5624 23.2584 35.3125 21.9817C35.0478 20.705 34.5798 19.4752 33.9133 18.3665C33.2467 17.2601 32.3989 16.2748 31.4187 15.4599C32.3695 16.3094 33.1757 17.3194 33.7956 18.4356C34.4132 19.5518 34.8297 20.7766 35.0429 22.0311C35.2439 23.2881 35.2488 24.5746 35.0307 25.8192C34.8101 27.0638 34.3887 28.2665 33.7736 29.353C33.1585 30.442 32.3646 31.4175 31.4383 32.2299C30.5071 33.0399 29.446 33.682 28.3115 34.124C27.1769 34.5635 25.9688 34.7932 24.7632 34.8204C23.5551 34.8352 22.3494 34.6549 21.2124 34.2549C20.0778 33.8573 19.0119 33.2646 18.0733 32.509C17.1397 31.7484 16.3335 30.8322 15.7037 29.8074C15.074 28.7826 14.628 27.6466 14.3731 26.4761C14.1256 25.3007 14.0717 24.0857 14.2212 22.9028C14.3756 21.7224 14.7211 20.5692 15.2528 19.5172C15.7846 18.4652 16.4928 17.5096 17.3308 16.7021C18.1714 15.897 19.1467 15.2451 20.193 14.7784C21.2418 14.3116 22.3666 14.0449 23.5012 13.9634H23.511C24.1113 13.919 24.5598 13.3881 24.5157 12.7756C24.4716 12.1632 23.9496 11.7014 23.3517 11.7459C23.3394 11.7459 23.3247 11.7459 23.3149 11.7483L23.31 11.7508Z" fill="url(#paint3_linear_1_171)"/>
<path d="M30.744 19.792C31.6507 19.792 32.3813 20.0853 32.936 20.672C33.4907 21.2587 33.768 22.048 33.768 23.04V28H32.04V23.152C32.04 22.5973 31.9013 22.1707 31.624 21.872C31.3467 21.5627 30.968 21.408 30.488 21.408C29.9547 21.408 29.528 21.584 29.208 21.936C28.8987 22.288 28.744 22.816 28.744 23.52V28H27.016V23.152C27.016 22.5973 26.8827 22.1707 26.616 21.872C26.36 21.5627 25.992 21.408 25.512 21.408C24.9893 21.408 24.5627 21.5893 24.232 21.952C23.9013 22.304 23.736 22.8267 23.736 23.52V28H22.008V20H23.736V20.96C24.248 20.1813 25.0107 19.792 26.024 19.792C27.048 19.792 27.8053 20.2133 28.296 21.056C28.8293 20.2133 29.6453 19.792 30.744 19.792ZM41.9534 20H43.6814V28H41.9534V26.848C41.3027 27.7547 40.3694 28.208 39.1534 28.208C38.0547 28.208 37.116 27.8027 36.3374 26.992C35.5587 26.1707 35.1694 25.1733 35.1694 24C35.1694 22.816 35.5587 21.8187 36.3374 21.008C37.116 20.1973 38.0547 19.792 39.1534 19.792C40.3694 19.792 41.3027 20.24 41.9534 21.136V20ZM37.6174 25.84C38.0974 26.32 38.7 26.56 39.4254 26.56C40.1507 26.56 40.7534 26.32 41.2334 25.84C41.7134 25.3493 41.9534 24.736 41.9534 24C41.9534 23.264 41.7134 22.656 41.2334 22.176C40.7534 21.6853 40.1507 21.44 39.4254 21.44C38.7 21.44 38.0974 21.6853 37.6174 22.176C37.1374 22.656 36.8974 23.264 36.8974 24C36.8974 24.736 37.1374 25.3493 37.6174 25.84ZM49.4715 28.208C48.2662 28.208 47.2582 27.8027 46.4475 26.992C45.6475 26.1813 45.2475 25.184 45.2475 24C45.2475 22.8053 45.6475 21.808 46.4475 21.008C47.2582 20.1973 48.2662 19.792 49.4715 19.792C50.2502 19.792 50.9595 19.9787 51.5995 20.352C52.2395 20.7253 52.7195 21.2267 53.0395 21.856L51.5515 22.72C51.3702 22.336 51.0928 22.0373 50.7195 21.824C50.3568 21.6 49.9355 21.488 49.4555 21.488C48.7515 21.488 48.1595 21.728 47.6795 22.208C47.2102 22.688 46.9755 23.2853 46.9755 24C46.9755 24.7147 47.2102 25.312 47.6795 25.792C48.1595 26.272 48.7515 26.512 49.4555 26.512C49.9248 26.512 50.3462 26.4 50.7195 26.176C51.1035 25.952 51.3915 25.6533 51.5835 25.28L53.0715 26.128C52.7302 26.768 52.2395 27.2747 51.5995 27.648C50.9595 28.0213 50.2502 28.208 49.4715 28.208ZM60.5315 20H62.2595V28H60.5315V26.848C59.8808 27.7547 58.9475 28.208 57.7315 28.208C56.6328 28.208 55.6942 27.8027 54.9155 26.992C54.1368 26.1707 53.7475 25.1733 53.7475 24C53.7475 22.816 54.1368 21.8187 54.9155 21.008C55.6942 20.1973 56.6328 19.792 57.7315 19.792C58.9475 19.792 59.8808 20.24 60.5315 21.136V20ZM56.1955 25.84C56.6755 26.32 57.2782 26.56 58.0035 26.56C58.7288 26.56 59.3315 26.32 59.8115 25.84C60.2915 25.3493 60.5315 24.736 60.5315 24C60.5315 23.264 60.2915 22.656 59.8115 22.176C59.3315 21.6853 58.7288 21.44 58.0035 21.44C57.2782 21.44 56.6755 21.6853 56.1955 22.176C55.7155 22.656 55.4755 23.264 55.4755 24C55.4755 24.736 55.7155 25.3493 56.1955 25.84ZM70.6096 20H72.3376V28H70.6096V26.848C69.959 27.7547 69.0256 28.208 67.8096 28.208C66.711 28.208 65.7723 27.8027 64.9936 26.992C64.215 26.1707 63.8256 25.1733 63.8256 24C63.8256 22.816 64.215 21.8187 64.9936 21.008C65.7723 20.1973 66.711 19.792 67.8096 19.792C69.0256 19.792 69.959 20.24 70.6096 21.136V20ZM66.2736 25.84C66.7536 26.32 67.3563 26.56 68.0816 26.56C68.807 26.56 69.4096 26.32 69.8896 25.84C70.3696 25.3493 70.6096 24.736 70.6096 24C70.6096 23.264 70.3696 22.656 69.8896 22.176C69.4096 21.6853 68.807 21.44 68.0816 21.44C67.3563 21.44 66.7536 21.6853 66.2736 22.176C65.7936 22.656 65.5536 23.264 65.5536 24C65.5536 24.736 65.7936 25.3493 66.2736 25.84ZM78.5598 19.792C79.4771 19.792 80.2184 20.0853 80.7838 20.672C81.3491 21.2587 81.6318 22.064 81.6318 23.088V28H79.9038V23.264C79.9038 22.6667 79.7438 22.208 79.4238 21.888C79.1038 21.568 78.6664 21.408 78.1118 21.408C77.5038 21.408 77.0131 21.6 76.6398 21.984C76.2664 22.3573 76.0798 22.9333 76.0798 23.712V28H74.3518V20H76.0798V21.024C76.6024 20.2027 77.4291 19.792 78.5598 19.792ZM85.3804 27.84C85.1457 28.0747 84.863 28.192 84.5324 28.192C84.2017 28.192 83.919 28.0747 83.6844 27.84C83.4497 27.6053 83.3324 27.3227 83.3324 26.992C83.3324 26.6613 83.4444 26.3787 83.6684 26.144C83.903 25.9093 84.191 25.792 84.5324 25.792C84.863 25.792 85.1457 25.9093 85.3804 26.144C85.615 26.3787 85.7324 26.6613 85.7324 26.992C85.7324 27.3227 85.615 27.6053 85.3804 27.84ZM93.2659 20H94.9939V28H93.2659V26.848C92.6152 27.7547 91.6819 28.208 90.4659 28.208C89.3672 28.208 88.4285 27.8027 87.6499 26.992C86.8712 26.1707 86.4819 25.1733 86.4819 24C86.4819 22.816 86.8712 21.8187 87.6499 21.008C88.4285 20.1973 89.3672 19.792 90.4659 19.792C91.6819 19.792 92.6152 20.24 93.2659 21.136V20ZM88.9299 25.84C89.4099 26.32 90.0125 26.56 90.7379 26.56C91.4632 26.56 92.0659 26.32 92.5459 25.84C93.0259 25.3493 93.2659 24.736 93.2659 24C93.2659 23.264 93.0259 22.656 92.5459 22.176C92.0659 21.6853 91.4632 21.44 90.7379 21.44C90.0125 21.44 89.4099 21.6853 88.9299 22.176C88.4499 22.656 88.2099 23.264 88.2099 24C88.2099 24.736 88.4499 25.3493 88.9299 25.84ZM98.64 18.48C98.4267 18.6933 98.1707 18.8 97.872 18.8C97.5733 18.8 97.312 18.6933 97.088 18.48C96.8747 18.256 96.768 17.9947 96.768 17.696C96.768 17.3973 96.8747 17.1413 97.088 16.928C97.3013 16.704 97.5627 16.592 97.872 16.592C98.1813 16.592 98.4427 16.704 98.656 16.928C98.8693 17.1413 98.976 17.3973 98.976 17.696C98.976 17.9947 98.864 18.256 98.64 18.48ZM97.008 28V20H98.736V28H97.008Z" fill="white"/>
<defs>
<linearGradient id="paint0_linear_1_171" x1="0.92293" y1="23.3127" x2="47.4772" y2="23.3127" gradientUnits="userSpaceOnUse">
<stop stop-color="#4993F3"/>
<stop offset="0.36" stop-color="#4D8DF2"/>
<stop offset="1" stop-color="#A800DD"/>
</linearGradient>
<linearGradient id="paint1_linear_1_171" x1="4.90108" y1="23.3299" x2="43.5011" y2="23.3299" gradientUnits="userSpaceOnUse">
<stop stop-color="#4993F3"/>
<stop offset="0.36" stop-color="#4D8DF2"/>
<stop offset="1" stop-color="#A800DD"/>
</linearGradient>
<linearGradient id="paint2_linear_1_171" x1="8.7124" y1="23.6708" x2="39.5101" y2="23.6708" gradientUnits="userSpaceOnUse">
<stop stop-color="#4993F3"/>
<stop offset="0.36" stop-color="#4D8DF2"/>
<stop offset="1" stop-color="#A800DD"/>
</linearGradient>
<linearGradient id="paint3_linear_1_171" x1="12.5451" y1="23.777" x2="35.5355" y2="23.777" gradientUnits="userSpaceOnUse">
<stop stop-color="#4993F3"/>
<stop offset="0.36" stop-color="#4D8DF2"/>
<stop offset="1" stop-color="#A800DD"/>
</linearGradient>
</defs>
</svg>
