
<svg width="16" height="16" viewBox="0 0 16 16" fill="none" xmlns="http://www.w3.org/2000/svg">
<path d="M8 0C3.58862 0 0 3.58862 0 8C0 12.4114 3.58862 16 8 16C12.4114 16 16 12.4114 16 8C16 3.58862 12.4114 0 8 0Z" fill="#3062F9"/>
<path d="M10.5676 5.92237L10.5675 5.92241C10.4929 5.99705 10.3831 6.02263 10.284 5.98992L9.14452 5.95229L9.14445 5.95229L10.5676 5.92237ZM10.5676 5.92237C10.642 5.84772 10.6674 5.73788 10.6346 5.63885L10.5971 4.50068L10.4972 4.50294L10.5971 4.49965L10.5971 4.50005C10.5933 4.34697 10.4663 4.22585 10.3132 4.22923L10.3132 4.22923L10.5676 5.92237ZM9.38487 4.42341L9.38502 4.4235C9.62602 4.56865 9.85073 4.73892 10.0555 4.93124L10.0419 4.51955C10.0417 4.51602 10.0417 4.51309 10.0417 4.51169C10.0417 4.51143 10.0417 4.51121 10.0417 4.51107L10.0417 4.51088H10.1417L9.38487 4.42341ZM9.38487 4.42341C8.81482 4.08138 8.17433 3.9 7.5324 3.9C6.5085 3.9 5.56388 4.32261 4.87445 5.08867L4.94878 5.15556L4.87445 5.08867C4.26514 5.76571 3.9 6.67762 3.9 7.5324C3.9 7.68575 4.02429 7.81014 4.17774 7.81014C4.33118 7.81014 4.45547 7.68575 4.45547 7.5324C4.45547 6.81641 4.76542 6.04012 5.28732 5.4603M9.38487 4.42341L5.28732 5.4603M5.28732 5.4603C5.87095 4.81193 6.66767 4.45547 7.5324 4.45547C8.07207 4.45547 8.61389 4.60867 9.09897 4.89977C9.33945 5.04447 9.56089 5.21816 9.75833 5.4168L9.16275 5.39715C9.16273 5.39715 9.16272 5.39715 9.16271 5.39715L5.28732 5.4603Z" fill="white" stroke="white" stroke-width="0.2"/>
<path d="M5.35113 9.64809C5.54857 9.84669 5.77 10.0204 6.01047 10.1651L5.95891 10.2508L6.01037 10.1651C6.49546 10.4562 7.03731 10.6093 7.57703 10.6093C8.44177 10.6093 9.23848 10.2529 9.82211 9.60459C10.344 9.0247 10.654 8.24836 10.654 7.53243C10.654 7.379 10.7783 7.25469 10.9317 7.25469C11.0851 7.25469 11.2094 7.379 11.2094 7.53243C11.2094 8.38726 10.8443 9.29917 10.235 9.97626L10.235 9.97627C9.54555 10.7423 8.60093 11.1649 7.57703 11.1649C6.93511 11.1649 6.29461 10.9836 5.72455 10.6415L5.72439 10.6414C5.48341 10.4961 5.25871 10.3259 5.05395 10.1336L5.06753 10.5453L5.06758 10.5468L5.35113 9.64809ZM5.35113 9.64809L5.94672 9.66773L5.94679 9.66773C6.10003 9.67268 6.22839 9.55251 6.23342 9.39922C6.23846 9.24594 6.11833 9.1176 5.96502 9.11248L5.96498 9.11248L4.82543 9.0749C4.72631 9.04219 4.61647 9.06786 4.54195 9.14238L4.54188 9.14246C4.4674 9.2171 4.44199 9.32689 4.47481 9.42592L4.51232 10.5647L4.51233 10.5651L4.61228 10.5618C4.6145 10.66 4.69587 10.7378 4.79401 10.7356L4.79622 10.8356C4.79624 10.8356 4.79626 10.8356 4.79627 10.8356C4.9491 10.8322 5.07048 10.7058 5.06775 10.553M5.35113 9.64809L5.06775 10.553M5.06775 10.553C5.06775 10.5535 5.06775 10.5538 5.06775 10.5539H4.96775L5.06772 10.5517C5.06773 10.5521 5.06774 10.5526 5.06775 10.553Z" fill="white" stroke="white" stroke-width="0.2"/>
</svg>
