
<svg width="15" height="15" viewBox="0 0 15 15" fill="none" xmlns="http://www.w3.org/2000/svg">
<path d="M9.30175 7.59652C9.20076 8.01436 8.72348 8.30961 7.76893 8.90011C6.84616 9.47095 6.38478 9.75638 6.01296 9.64165C5.85924 9.59421 5.71918 9.50413 5.60622 9.38003C5.33301 9.07988 5.33301 8.4977 5.33301 7.33333C5.33301 6.16897 5.33301 5.58679 5.60622 5.28663C5.71918 5.16254 5.85924 5.07245 6.01296 5.02502C6.38478 4.91029 6.84616 5.19571 7.76893 5.76655C8.72348 6.35706 9.20076 6.65231 9.30175 7.07014C9.34343 7.24261 9.34343 7.42406 9.30175 7.59652Z" stroke="#3062F9" stroke-width="0.8" stroke-linejoin="round"/>
<path d="M1 7.33333C1 4.34777 1 2.85499 1.9275 1.9275C2.85499 1 4.34777 1 7.33333 1C10.3189 1 11.8117 1 12.7392 1.9275C13.6667 2.85499 13.6667 4.34777 13.6667 7.33333C13.6667 10.3189 13.6667 11.8117 12.7392 12.7392C11.8117 13.6667 10.3189 13.6667 7.33333 13.6667C4.34777 13.6667 2.85499 13.6667 1.9275 12.7392C1 11.8117 1 10.3189 1 7.33333Z" stroke="#3062F9" stroke-width="0.8"/>
</svg>
